<svg xmlns="http://www.w3.org/2000/svg" viewBox="0 0 600 600">
  <path fill="#000000" d="M300,570c-36.4,0-71.8-7.1-105.1-21.2c-32.2-13.6-61-33.1-85.8-57.9c-24.8-24.8-44.3-53.7-57.9-85.8C37.1,371.8,30,336.4,30,300c0-36.4,7.1-71.8,21.2-105.1c13.6-32.2,33.1-61,57.9-85.8c24.8-24.8,53.7-44.3,85.8-57.9C228.2,37.1,263.6,30,300,30c36.4,0,71.8,7.1,105.1,21.2c32.2,13.6,61,33.1,85.8,57.9c24.8,24.8,44.3,53.7,57.9,85.8C562.9,228.2,570,263.6,570,300c0,36.4-7.1,71.8-21.2,105.1c-13.6,32.2-33.1,61-57.9,85.8c-24.8,24.8-53.7,44.3-85.8,57.9C371.8,562.9,336.4,570,300,570z M300,55.8C165.3,55.8,55.8,165.3,55.8,300c0,134.7,109.6,244.2,244.2,244.2c134.7,0,244.2-109.6,244.2-244.2C544.2,165.3,434.7,55.8,300,55.8z"/>
  <path fill="#000000" d="M211.9,461.4c-8.6,0-15.4-6.8-15.4-15.4V155.7c0-6.9,4.6-13,11.1-14.9c0.3-0.1,29.6-8.7,65.7-8.7c37.4,0,68,8.9,90.8,26.5c30.4,23.5,45.3,61,44.1,111.6c-0.5,8.6-7,15-15.1,15c-0.3,0-0.8,0-0.8,0c-3.8,0-7.7-1.7-10.4-4.6c-2.8-3-4.3-7-4-10.9c0.7-40.4-10.2-69.6-32.5-86.8c-17.2-13.4-41.3-20.2-71.7-20.2c-18.5,0-35.4,2.6-46.7,4.9V446C226.9,454.5,220.2,461.4,211.9,461.4z M336.9,461.3c-4.2,0-8.5-1.9-11.8-5.1l-0.2-0.2l-66.7-113c-5.1-6.5-4.3-15.5,2-21.3c3-2.4,6.4-3.6,9.9-3.6c4.5,0,8.6,1.9,11.8,5.3l0.1,0.1l66.7,112.9c5.1,6.5,4.3,15.5-2,21.3C343.9,460.1,340.6,461.3,336.9,461.3z M407.5,461.3c-4.7,0-8.9-2.1-11.7-5.9L292.8,279.6c-5.1-6.4-4.2-16.1,2.1-21.4c2.7-2.2,6.1-3.5,9.6-3.5c4.5,0,8.8,2,11.7,5.4l103.4,176.3c5.1,6.5,4.3,15.5-2,21.3C414,460.2,410.9,461.3,407.5,461.3z"/>
</svg>